<svg preserveAspectRatio="none" width="100%" height="100%" overflow="visible" style="display: block;" viewBox="0 0 60 60" fill="none" xmlns="http://www.w3.org/2000/svg">
<g id="icon/pointer">
<path id="Vector" d="M55 35C55 40.3043 52.8929 45.3914 49.1421 49.1421C45.3914 52.8929 40.3043 55 35 55" stroke="var(--stroke-0, black)" stroke-width="2.42553" stroke-linecap="round" stroke-linejoin="round"/>
<path id="Vector_2" d="M45 27.5V25C45 23.6739 44.4732 22.4021 43.5355 21.4645C42.5979 20.5268 41.3261 20 40 20C38.6739 20 37.4021 20.5268 36.4645 21.4645C35.5268 22.4021 35 23.6739 35 25" stroke="var(--stroke-0, black)" stroke-width="2.42553" stroke-linecap="round" stroke-linejoin="round"/>
<path id="Vector_3" d="M35 25V22.5C35 21.1739 34.4732 19.9021 33.5355 18.9645C32.5979 18.0268 31.3261 17.5 30 17.5C28.6739 17.5 27.4021 18.0268 26.4645 18.9645C25.5268 19.9021 25 21.1739 25 22.5V25" stroke="var(--stroke-0, black)" stroke-width="2.42553" stroke-linecap="round" stroke-linejoin="round"/>
<path id="Vector_4" d="M25 23.75V10C25 8.67392 24.4732 7.40215 23.5355 6.46447C22.5979 5.52678 21.3261 5 20 5C18.6739 5 17.4021 5.52678 16.4645 6.46447C15.5268 7.40215 15 8.67392 15 10V35" stroke="var(--stroke-0, black)" stroke-width="2.42553" stroke-linecap="round" stroke-linejoin="round"/>
<path id="Vector_5" d="M45 27.5C45 26.1739 45.5268 24.9021 46.4645 23.9645C47.4021 23.0268 48.6739 22.5 50 22.5C51.3261 22.5 52.5979 23.0268 53.5355 23.9645C54.4732 24.9021 55 26.1739 55 27.5V35C55 40.3043 52.8929 45.3914 49.1421 49.1421C45.3914 52.8929 40.3043 55 35 55H30C23 55 18.75 52.85 15.025 49.15L6.025 40.15C5.16484 39.1974 4.70397 37.9504 4.73781 36.6674C4.77165 35.3843 5.29762 34.1634 6.2068 33.2574C7.11599 32.3514 8.33875 31.8298 9.62193 31.8005C10.9051 31.7712 12.1504 32.2365 13.1 33.1L17.5 37.5" stroke="var(--stroke-0, black)" stroke-width="2.42553" stroke-linecap="round" stroke-linejoin="round"/>
</g>
</svg>
